# xmcd CD database file
#
# Track frame offsets:
#	150
#	24681
#	37893
#	57391
#	78955
#	95601
#	117491
#	132470
#	177636
#	189571
#
# Disc length: 2778 seconds
#
# Revision: 0
# Processed by: cddbd v1.5.2PL0 Copyright (c) Steve Scherf et al.
# Submitted via: CDex 1.51
#
DISCID=8b0ad80a
DTITLE=Arrasate Musikal - Birdland
DYEAR=2006
DGENRE=Jazz
TTITLE0=A. M. Big Band - Birdland
TTITLE1=A. M. Big Band - Zing Went the Strings of My Heart
TTITLE2=A. M. Big Band - Chu Cho
TTITLE3=A. M. Big Band - My Funny Valentine 
TTITLE4=A. M. Big Band - Cherry
TTITLE5=A. M. Big Band - Luck Be a Lady
TTITLE6=A. M. Big Band - Mercy, Mercy, Mercy 
TTITLE7=A. M. Big Band - Concert for Clarinet
TTITLE8=A. M. Big Band - Mr. Anthony´s Boogie
TTITLE9=A. M. Big Band - The Winds Cries Mary 
EXTD=YEAR: 2006
EXTT0=
EXTT1=
EXTT2=
EXTT3=
EXTT4=
EXTT5=
EXTT6=
EXTT7=
EXTT8=
EXTT9=
PLAYORDER=
